<svg xmlns="http://www.w3.org/2000/svg" viewBox="0 0 150 154.3">
<!-- SVG created with Arrow, by QuiverAI (https://quiver.ai) -->
  <path fill="#591026" d="m149.9 77.2c0 38.6-31.4 76.3-74.9 76.3s-74.9-34.7-74.9-75.6c0-38.6 32.8-77.1 74.8-77.1s75 35.5 75 76.4z"/>
  <path fill="#E7B842" d="m75 7.5c-37.2 0-69.2 30.3-69.2 69.9 0 35.5 27.1 69.6 69 69.7 37.1 0.1 69.4-28.5 69.4-69.7 0-35.3-28.6-69.9-69.2-69.9zm-0.2 137.5c-37.8-0.1-67-29.1-66.7-67.7 0.2-36.6 31.3-67.7 66.8-67.8 37.7-0.1 67.3 31.3 67.3 68.1s-28.9 67.4-67.4 67.4z"/>
  <path fill="#540F25" d="m124.3 54.8-47.7-30.6c-0.7-0.4-1.6-0.4-2.3 0l-48.6 30.6c-0.4 0.3-0.7 0.8-0.7 1.3l0.1 2.9c0 0.3 0.3 0.5 0.6 0.4l48.2-24.9c0.7-0.3 1.4-0.3 2 0l48 24.9c0.3 0.2 0.8 0 0.8-0.4l0.1-2.9c0-0.5-0.2-1-0.5-1.3z"/>
  <path fill="#E7B841" d="m123.9 54.7-47.6-30.7c-0.6-0.3-1.5-0.4-2.4 0.1l-48 30.6c-0.4 0.3-0.6 0.7-0.6 1.1v3.2c0 0.3 0.2 0.4 0.5 0.3l48-25.4c0.8-0.4 1.6-0.4 2.3-0.1l47.8 25.4c0.3 0.2 0.6 0 0.6-0.3v-2.9c0-0.5-0.2-1-0.6-1.3z"/>
  <path fill="#E7B841" d="m75.8 39c-0.5-0.2-1-0.1-1.4 0.1l-38 18.5c-0.1 0.1-0.1 0.2 0.1 0.2l37.6-10.2c0.6-0.1 1.2-0.1 1.8 0l37.8 10.1c0.1 0.1 0.2 0 0.1 0l-38-18.7z"/>
  <path fill="#E7B841" d="m87.9 58.9h-26c-0.2 0-0.4 0.3-0.4 0.5v1.3c0 1 0.5 2 1.3 2.5 1.2 0.8 2.3 2.8 2.4 5.4 0 0.3 0.3 0.6 0.6 0.6h1.2v50.5h-1.1c-0.7 0-1.4 0.6-1.4 1.3v1c0 0.3 0.2 0.5 0.4 0.5h19.3c0.3 0 0.4-0.2 0.4-0.4v-1.1c0-0.7-0.6-1.3-1.3-1.3h-1.2v-50.5h1.3c0.3 0 0.6-0.2 0.7-0.6 0.1-2.5 1.3-4.5 2.5-5.3 0.8-0.5 1.4-1.5 1.4-2.6v-1.3c0-0.3-0.1-0.5-0.1-0.5z"/>
  <path fill="#E7B841" d="m56.1 64.1h-23.9c-0.2 0-0.4 0.3-0.4 0.6v1c0 1.1 0.5 2.2 1.4 2.7 1.2 0.7 2.9 2.7 3 5.3 0 0.3 0.3 0.5 0.6 0.5h0.7v45.5h-1.2c-0.7 0-1.4 0.6-1.4 1.4v1c0 0.2 0.2 0.4 0.4 0.4h18.1c0.3 0 0.5-0.2 0.5-0.4v-1.1c0-0.7-0.6-1.3-1.3-1.3h-1.4v-45.5h0.8c0.3 0 0.7-0.2 0.7-0.6 0.1-2.5 1.4-4.8 2.6-5.4 0.8-0.5 1.2-1.6 1.2-2.5v-1.1c0-0.3-0.2-0.5-0.4-0.5z"/>
  <path fill="#E7B841" d="m117.5 64.1h-23.6c-0.2 0-0.4 0.3-0.4 0.5v1.1c0 1.1 0.4 2.1 1.3 2.7 1.1 0.6 2.7 2.7 2.7 5.2 0 0.3 0.3 0.6 0.6 0.6h0.4v45.5h-1.1c-0.7 0-1.4 0.6-1.4 1.4v1c0 0.2 0.2 0.4 0.4 0.4h18.1c0.3 0 0.4-0.2 0.4-0.4v-1.1c0-0.7-0.6-1.3-1.3-1.3h-1.1v-45.5h0.8c0.3 0 0.7-0.2 0.7-0.6 0.1-2.4 1.3-4.8 2.5-5.3 0.9-0.5 1.4-1.5 1.4-2.6v-1.1c0-0.3-0.2-0.5-0.4-0.5z"/>
</svg>
